<svg width="300" height="220" viewBox="0 0 300 220" fill="none" xmlns="http://www.w3.org/2000/svg">
  <rect width="300" height="220" fill="#7ED8E7"/>
  <path d="M149 106C149 87.7746 163.775 73 182 73C200.225 73 215 87.7746 215 106C215 123.702 200.833 138.169 183.336 138.963L183.713 166.469L181.713 166.496L181.335 138.95C163.981 138.6 149 124.38 149 106Z" fill="#F3C10D"/>
  <path d="M183 83L175 87L171 95L176 105L183 109L191 106L195 98L191 87L183 83Z" fill="#141414"/>
  <path d="M167.917 190.333L181.667 165.667" stroke="#C4A14E" stroke-width="1.5"/>
  <path d="M161.277 164.82C161.277 163.78 162.12 162.937 163.16 162.937C164.2 162.937 165.043 163.78 165.043 164.82C165.043 165.86 164.2 166.703 163.16 166.703C162.12 166.703 161.277 165.86 161.277 164.82Z" fill="#D8B368"/>
  <path d="M171 99L178.5 95.5" stroke="#141414" stroke-width="3"/>
  <path d="M173 106L182 102" stroke="#141414" stroke-width="3"/>
  <path d="M176 113L185 109" stroke="#141414" stroke-width="3"/>
</svg>
